<svg width="23" height="23" viewBox="0 0 23 23" fill="none" xmlns="http://www.w3.org/2000/svg">
<path d="M5 17.5H7.5V11.25H5V17.5ZM15 17.5H17.5V5H15V17.5ZM10 17.5H12.5V13.75H10V17.5ZM10 11.25H12.5V8.75H10V11.25ZM2.5 22.5C1.8125 22.5 1.22396 22.2552 0.734375 21.7656C0.244792 21.276 0 20.6875 0 20V2.5C0 1.8125 0.244792 1.22396 0.734375 0.734375C1.22396 0.244792 1.8125 0 2.5 0H20C20.6875 0 21.276 0.244792 21.7656 0.734375C22.2552 1.22396 22.5 1.8125 22.5 2.5V20C22.5 20.6875 22.2552 21.276 21.7656 21.7656C21.276 22.2552 20.6875 22.5 20 22.5H2.5ZM2.5 20H20V2.5H2.5V20ZM2.5 2.5V20V2.5Z" fill="#4725F4"/>
</svg>
