<svg width="27" height="27" viewBox="0 0 27 27" fill="none" xmlns="http://www.w3.org/2000/svg">
<path d="M2.5 21.25V7.5V21.25C2.5 20.8333 2.5 20.6771 2.5 20.7812C2.5 20.8854 2.5 21.0417 2.5 21.25ZM2.5 23.75C1.8125 23.75 1.22396 23.5052 0.734375 23.0156C0.244792 22.526 0 21.9375 0 21.25V7.5C0 6.8125 0.244792 6.22396 0.734375 5.73438C1.22396 5.24479 1.8125 5 2.5 5H7.5V2.5C7.5 1.8125 7.74479 1.22396 8.23438 0.734375C8.72396 0.244792 9.3125 0 10 0H15C15.6875 0 16.276 0.244792 16.7656 0.734375C17.2552 1.22396 17.5 1.8125 17.5 2.5V5H22.5C23.1875 5 23.776 5.24479 24.2656 5.73438C24.7552 6.22396 25 6.8125 25 7.5V12.8438C24.625 12.5729 24.2292 12.3385 23.8125 12.1406C23.3958 11.9427 22.9583 11.7708 22.5 11.625V7.5H2.5V21.25H11.3438C11.4062 21.6875 11.5 22.1146 11.625 22.5312C11.75 22.9479 11.9062 23.3542 12.0938 23.75H2.5ZM10 5H15V2.5H10V5ZM20 26.25C18.2708 26.25 16.7969 25.6406 15.5781 24.4219C14.3594 23.2031 13.75 21.7292 13.75 20C13.75 18.2708 14.3594 16.7969 15.5781 15.5781C16.7969 14.3594 18.2708 13.75 20 13.75C21.7292 13.75 23.2031 14.3594 24.4219 15.5781C25.6406 16.7969 26.25 18.2708 26.25 20C26.25 21.7292 25.6406 23.2031 24.4219 24.4219C23.2031 25.6406 21.7292 26.25 20 26.25ZM20.625 19.75V16.25H19.375V20.25L22.0625 22.9375L22.9375 22.0625L20.625 19.75Z" fill="#4725F4"/>
</svg>
