<svg width="64" height="64" viewBox="0 0 64 64" fill="none" xmlns="http://www.w3.org/2000/svg">
<rect x="12" y="2" width="40" height="40" rx="20" fill="#4725F4"/>
<g filter="url(#filter0_dd_12_348)">
<rect x="12" y="2" width="40" height="40" rx="20" fill="white" fill-opacity="0.01" shape-rendering="crispEdges"/>
</g>
<path d="M25.4941 32V27.7C24.5441 26.8333 23.8066 25.8208 23.2816 24.6625C22.7566 23.5042 22.4941 22.2833 22.4941 21C22.4941 18.5 23.3691 16.375 25.1191 14.625C26.8691 12.875 28.9941 12 31.4941 12C33.5775 12 35.4233 12.6125 37.0316 13.8375C38.64 15.0625 39.6858 16.6583 40.1691 18.625L41.4691 23.75C41.5525 24.0667 41.4941 24.3542 41.2941 24.6125C41.0941 24.8708 40.8275 25 40.4941 25H38.4941V28C38.4941 28.55 38.2983 29.0208 37.9066 29.4125C37.515 29.8042 37.0441 30 36.4941 30H34.4941V32H32.4941V28H36.4941V23H39.1941L38.2441 19.125C37.8608 17.6083 37.0441 16.375 35.7941 15.425C34.5441 14.475 33.1108 14 31.4941 14C29.5608 14 27.9108 14.675 26.5441 16.025C25.1775 17.375 24.4941 19.0167 24.4941 20.95C24.4941 21.95 24.6983 22.9 25.1066 23.8C25.515 24.7 26.0941 25.5 26.8441 26.2L27.4941 26.8V32H25.4941ZM30.4941 25H32.4941L32.6441 23.75C32.7775 23.7 32.8983 23.6417 33.0066 23.575C33.115 23.5083 33.2108 23.4333 33.2941 23.35L34.4441 23.85L35.4441 22.15L34.4441 21.4C34.4775 21.2667 34.4941 21.1333 34.4941 21C34.4941 20.8667 34.4775 20.7333 34.4441 20.6L35.4441 19.85L34.4441 18.15L33.2941 18.65C33.2108 18.5667 33.115 18.4917 33.0066 18.425C32.8983 18.3583 32.7775 18.3 32.6441 18.25L32.4941 17H30.4941L30.3441 18.25C30.2108 18.3 30.09 18.3583 29.9816 18.425C29.8733 18.4917 29.7775 18.5667 29.6941 18.65L28.5441 18.15L27.5441 19.85L28.5441 20.6C28.5108 20.7333 28.4941 20.8667 28.4941 21C28.4941 21.1333 28.5108 21.2667 28.5441 21.4L27.5441 22.15L28.5441 23.85L29.6941 23.35C29.7775 23.4333 29.8733 23.5083 29.9816 23.575C30.09 23.6417 30.2108 23.7 30.3441 23.75L30.4941 25ZM31.4941 22.5C31.0775 22.5 30.7233 22.3542 30.4316 22.0625C30.14 21.7708 29.9941 21.4167 29.9941 21C29.9941 20.5833 30.14 20.2292 30.4316 19.9375C30.7233 19.6458 31.0775 19.5 31.4941 19.5C31.9108 19.5 32.265 19.6458 32.5566 19.9375C32.8483 20.2292 32.9941 20.5833 32.9941 21C32.9941 21.4167 32.8483 21.7708 32.5566 22.0625C32.265 22.3542 31.9108 22.5 31.4941 22.5Z" fill="white"/>
<defs>
<filter id="filter0_dd_12_348" x="0" y="0" width="64" height="64" filterUnits="userSpaceOnUse" color-interpolation-filters="sRGB">
<feFlood flood-opacity="0" result="BackgroundImageFix"/>
<feColorMatrix in="SourceAlpha" type="matrix" values="0 0 0 0 0 0 0 0 0 0 0 0 0 0 0 0 0 0 127 0" result="hardAlpha"/>
<feMorphology radius="4" operator="erode" in="SourceAlpha" result="effect1_dropShadow_12_348"/>
<feOffset dy="4"/>
<feGaussianBlur stdDeviation="3"/>
<feComposite in2="hardAlpha" operator="out"/>
<feColorMatrix type="matrix" values="0 0 0 0 0.278431 0 0 0 0 0.145098 0 0 0 0 0.956863 0 0 0 0.2 0"/>
<feBlend mode="normal" in2="BackgroundImageFix" result="effect1_dropShadow_12_348"/>
<feColorMatrix in="SourceAlpha" type="matrix" values="0 0 0 0 0 0 0 0 0 0 0 0 0 0 0 0 0 0 127 0" result="hardAlpha"/>
<feMorphology radius="3" operator="erode" in="SourceAlpha" result="effect2_dropShadow_12_348"/>
<feOffset dy="10"/>
<feGaussianBlur stdDeviation="7.5"/>
<feComposite in2="hardAlpha" operator="out"/>
<feColorMatrix type="matrix" values="0 0 0 0 0.278431 0 0 0 0 0.145098 0 0 0 0 0.956863 0 0 0 0.2 0"/>
<feBlend mode="normal" in2="effect1_dropShadow_12_348" result="effect2_dropShadow_12_348"/>
<feBlend mode="normal" in="SourceGraphic" in2="effect2_dropShadow_12_348" result="shape"/>
</filter>
</defs>
</svg>
