<svg width="18" height="24" viewBox="0 0 18 24" fill="none" xmlns="http://www.w3.org/2000/svg">
<path d="M8.75 15C7.70833 15 6.82292 14.6354 6.09375 13.9062C5.36458 13.1771 5 12.2917 5 11.25V3.75C5 2.70833 5.36458 1.82292 6.09375 1.09375C6.82292 0.364583 7.70833 0 8.75 0C9.79167 0 10.6771 0.364583 11.4062 1.09375C12.1354 1.82292 12.5 2.70833 12.5 3.75V11.25C12.5 12.2917 12.1354 13.1771 11.4062 13.9062C10.6771 14.6354 9.79167 15 8.75 15ZM7.5 23.75V19.9062C5.33333 19.6146 3.54167 18.6458 2.125 17C0.708333 15.3542 0 13.4375 0 11.25H2.5C2.5 12.9792 3.10938 14.4531 4.32812 15.6719C5.54688 16.8906 7.02083 17.5 8.75 17.5C10.4792 17.5 11.9531 16.8906 13.1719 15.6719C14.3906 14.4531 15 12.9792 15 11.25H17.5C17.5 13.4375 16.7917 15.3542 15.375 17C13.9583 18.6458 12.1667 19.6146 10 19.9062V23.75H7.5Z" fill="white"/>
</svg>
